<svg xmlns="http://www.w3.org/2000/svg" xmlns:osb="http://www.openswatchbook.org/uri/2009/osb" xmlns:svg="http://www.w3.org/2000/svg" xmlns:xlink="http://www.w3.org/1999/xlink" id="svg8" width="500" height="500" version="1.1" viewBox="0 0 132.292 132.292"><defs id="defs2"><linearGradient id="linearGradient861"><stop style="stop-color:#d400dc;stop-opacity:1" id="stop857" offset="0"/><stop style="stop-color:#0096cc;stop-opacity:1" id="stop859" offset="1"/></linearGradient><linearGradient id="linearGradient858" osb:paint="gradient"><stop id="stop854" offset="0" style="stop-color:#000;stop-opacity:1"/><stop id="stop856" offset="1" style="stop-color:#000;stop-opacity:0"/></linearGradient><linearGradient id="linearGradient863" x1="32.275" x2="94.736" y1="39.802" y2="93.094" gradientUnits="userSpaceOnUse" xlink:href="#linearGradient861"/><filter style="color-interpolation-filters:sRGB" id="filter867" width="1.267" height="1.218" x="-.133" y="-.109"><feGaussianBlur id="feGaussianBlur869" stdDeviation="3.763"/></filter></defs><metadata id="metadata5"/><g style="display:inline" id="layer2"><rect id="rect847" width="47.045" height="39.619" x="42.496" y="47.574" style="fill:#fff;stroke-width:6.448;paint-order:stroke fill markers;fill-opacity:1"/><path id="path846" d="m 58.619153,86.362265 -15.05364,-15.0535 5.30648,-5.30634 9.74716,9.70946 24.80066,-24.80065 5.30634,5.34389 m -22.58032,-30.107 -33.87048,15.0535 v 22.58032 c 0,20.88683 14.4514,40.418845 33.87048,45.160635 19.41907,-4.74179 33.870477,-24.273805 33.870477,-45.160635 v -22.58032 z" style="display:inline;opacity:.16;fill:#000;fill-opacity:1;stroke-width:3.76338;filter:url(#filter867)"/><path style="fill:url(#linearGradient863);fill-opacity:1;stroke-width:3.76338" id="path865" d="m 58.619153,84.962748 -15.05364,-15.0535 5.30648,-5.30634 9.74716,9.70946 24.80066,-24.80065 5.30634,5.34389 m -22.58032,-30.107 -33.87048,15.0535 v 22.58032 c 0,20.88683 14.4514,40.418842 33.87048,45.160632 19.41907,-4.74179 33.870477,-24.273802 33.870477,-45.160632 v -22.58032 z"/></g></svg>