<svg xmlns="http://www.w3.org/2000/svg" xmlns:osb="http://www.openswatchbook.org/uri/2009/osb" xmlns:svg="http://www.w3.org/2000/svg" xmlns:xlink="http://www.w3.org/1999/xlink" id="svg8" width="1093.092" height="982.541" version="1.1" viewBox="0 0 289.214 259.964"><defs id="defs2"><linearGradient id="linearGradient6619"><stop style="stop-color:#2bf9ff;stop-opacity:1" id="stop6615" offset="0"/><stop style="stop-color:#00ff13;stop-opacity:1" id="stop6617" offset="1"/></linearGradient><linearGradient id="linearGradient1909"><stop style="stop-color:#29737a;stop-opacity:1" id="stop1905" offset="0"/><stop style="stop-color:#923589;stop-opacity:1" id="stop1907" offset="1"/></linearGradient><linearGradient id="linearGradient1362"><stop id="stop1358" offset="0" style="stop-color:#b6b6b6;stop-opacity:1"/><stop id="stop1360" offset="1" style="stop-color:#d9d9d9;stop-opacity:1"/></linearGradient><linearGradient id="linearGradient1356"><stop style="stop-color:#a8a8a8;stop-opacity:1" id="stop1352" offset="0"/><stop style="stop-color:#dadada;stop-opacity:1" id="stop1354" offset="1"/></linearGradient><linearGradient id="linearGradient873"><stop id="stop869" offset="0" style="stop-color:#40b6c2;stop-opacity:1"/><stop id="stop871" offset="1" style="stop-color:#ff5ef0;stop-opacity:1"/></linearGradient><linearGradient id="linearGradient875" x1="253.158" x2="94.714" y1="-66.066" y2="79.266" gradientUnits="userSpaceOnUse" xlink:href="#linearGradient873"/><linearGradient id="linearGradient883" x1="216.626" x2="88.162" y1="-83.948" y2="13.068" gradientUnits="userSpaceOnUse" xlink:href="#linearGradient1909"/><filter id="filter1263" width="1.202" height="1.567" x="-.101" y="-.284" style="color-interpolation-filters:sRGB"><feGaussianBlur id="feGaussianBlur1265" stdDeviation="10.141"/></filter><linearGradient id="linearGradient1275" x1="66.39" x2="75.914" y1="-118.266" y2="-52.081" gradientTransform="matrix(1.4149645,-1.0656604e-8,-1.0656604e-8,1.4149645,70.540913,146.97006)" gradientUnits="userSpaceOnUse" xlink:href="#linearGradient1362"/><linearGradient id="linearGradient1275-4" x1="63.3" x2="67.285" y1="-66.492" y2="-116.844" gradientTransform="matrix(1.4412262,5.1179464e-8,0,1.6025377,83.882663,90.145721)" gradientUnits="userSpaceOnUse" xlink:href="#linearGradient1356"/><filter id="filter1861" width="1.074" height="1.128" x="-.037" y="-.064" style="color-interpolation-filters:sRGB"><feGaussianBlur id="feGaussianBlur1863" stdDeviation="1.389"/></filter><linearGradient id="linearGradient6213" x1="181.097" x2="230.103" y1="43.527" y2="113.753" gradientTransform="translate(-5.0270833,6.879167)" gradientUnits="userSpaceOnUse" xlink:href="#linearGradient6619"/><filter id="filter7232" width="1.579" height="1.429" x="-.289" y="-.215" style="color-interpolation-filters:sRGB"><feGaussianBlur id="feGaussianBlur7234" stdDeviation="11.175"/></filter><linearGradient id="linearGradient861"><stop id="stop857" offset="0" style="stop-color:#d400dc;stop-opacity:1"/><stop id="stop859" offset="1" style="stop-color:#0096cc;stop-opacity:1"/></linearGradient><linearGradient id="linearGradient858" osb:paint="gradient"><stop style="stop-color:#000;stop-opacity:1" id="stop854" offset="0"/><stop style="stop-color:#000;stop-opacity:0" id="stop856" offset="1"/></linearGradient><linearGradient id="linearGradient863" x1="32.275" x2="94.736" y1="39.802" y2="93.094" gradientUnits="userSpaceOnUse" xlink:href="#linearGradient861"/><linearGradient id="linearGradient863-2" x1="32.275" x2="94.736" y1="39.802" y2="93.094" gradientTransform="translate(4e-6)" gradientUnits="userSpaceOnUse" xlink:href="#linearGradient861"/><filter id="filter7347" width="1.741" height="1.53" x="-.371" y="-.265" style="color-interpolation-filters:sRGB"><feGaussianBlur id="feGaussianBlur7349" stdDeviation="10.373"/></filter></defs><metadata id="metadata5"/><g id="layer1" transform="translate(-2.322068,47.94149)"><path id="path891" d="m 267.19309,102.27953 c -0.0995,16.34728 1.12888,20.99595 -8.58604,26.71752 l -91.08231,53.64267 c -11.41901,6.7252 -29.80485,6.7252 -41.22385,10e-6 L 35.218574,128.99706 c -10.362293,-6.10285 -8.215477,-13.24411 -8.557619,-27.11943 z" style="fill:#000;fill-opacity:.625;stroke-width:12.97;stroke-miterlimit:3.2;stroke-dasharray:51.8801,12.97;stroke-dashoffset:16.8609;paint-order:fill markers stroke;filter:url(#filter1263)"/><path style="fill:url(#linearGradient883);fill-opacity:1;stroke-width:13.8691;stroke-miterlimit:3.2;stroke-dasharray:55.4765,13.8691;stroke-dashoffset:18.0297;paint-order:fill markers stroke" id="rect851-5" d="m 250.08218,-60.00674 c 16.04869,16.164196 21.34169,20.031572 21.34169,31.30615 V 77.004301 c 0,13.252242 -10.66877,23.921019 -23.92101,23.921019 H 141.79797 c -12.02588,0 -17.81621,-8.2818 -31.68564,-21.75416 z" transform="matrix(0.86166602,0.50747578,-0.86166602,0.50747578,0,0)"/><rect id="rect851" width="153.547" height="153.547" x="103.279" y="-67.22" ry="23.921" transform="matrix(0.86166602,0.50747579,-0.86166602,0.50747579,0,0)" style="fill:url(#linearGradient875);fill-opacity:1;stroke-width:13.8691;stroke-miterlimit:3.2;stroke-dasharray:55.4766,13.8691;stroke-dashoffset:18.0297;paint-order:fill markers stroke"/><rect id="rect1267-8-6" width="54.835" height="38.425" x="119.333" y="26.01" ry="2.802" transform="matrix(1.6357483,0.94614477,-1.6357483,0.94614477,-29.598996,-82.792873)" style="fill:#000;fill-opacity:.439516;stroke-width:13.5268;stroke-miterlimit:3.2;stroke-dasharray:54.1076,13.5268;stroke-dashoffset:17.5848;paint-order:fill markers stroke;filter:url(#filter1861)"/><rect style="fill:#b6b6b6;fill-opacity:1;stroke-width:25.5612;stroke-miterlimit:3.2;stroke-dasharray:102.246,25.5612;stroke-dashoffset:33.2295;paint-order:fill markers stroke" id="rect1267-8" width="103.62" height="72.61" x="124.727" y="-17.43" ry="5.294" transform="matrix(0.86562525,0.50069245,-0.86562525,0.50069245,0,0)"/><rect id="rect1267" width="103.62" height="72.61" x="122.73" y="-19.428" ry="5.294" transform="matrix(0.86562526,0.50069244,-0.86562526,0.50069244,0,0)" style="fill:url(#linearGradient1275);fill-opacity:1;stroke-width:25.5612;stroke-miterlimit:3.2;stroke-dasharray:102.245,25.5612;stroke-dashoffset:33.2295;paint-order:fill markers stroke"/><rect style="fill:url(#linearGradient1275-4);fill-opacity:1;stroke-width:27.4541;stroke-miterlimit:3.2;stroke-dasharray:109.817,27.4541;stroke-dashoffset:35.6902;paint-order:fill markers stroke" id="rect1267-2" width="105.544" height="82.235" x="137.04" y="-98.31" ry="3.76" transform="matrix(0.86759952,0.49726359,-0.08000698,0.9967943,0,0)"/><rect style="fill:#acacac;fill-opacity:1;stroke-width:16.7599;stroke-miterlimit:3.2;stroke-dasharray:67.0403,16.7599;stroke-dashoffset:21.7877;paint-order:fill markers stroke" id="rect1267-9" width="85.758" height="37.718" x="131.498" y="-12.932" ry="2.75" transform="matrix(0.86102959,0.50855486,-0.85584377,0.51723442,0,0)"/><rect id="rect1267-2-6" width="90.653" height="70.633" x="143.923" y="-91.641" ry="3.229" transform="matrix(0.86759952,0.49726358,-0.08000698,0.9967943,0,0)" style="display:inline;fill:#fff;fill-opacity:1;stroke-width:23.5799;stroke-miterlimit:3.2;stroke-dasharray:94.3219,23.5799;stroke-dashoffset:30.6552;paint-order:fill markers stroke"/><rect style="display:inline;fill:#fff;fill-opacity:1;stroke-width:23.5799;stroke-miterlimit:3.2;stroke-dasharray:94.3218,23.5799;stroke-dashoffset:30.6552;paint-order:fill markers stroke;filter:url(#filter7232)" id="rect1267-2-6-4" width="90.653" height="70.633" x="143.923" y="-91.641" ry="3.229" transform="matrix(0.86759952,0.49726358,-0.08000698,0.9967943,0,0)"/><g style="display:inline" id="g7314" transform="translate(95.201601,-127.17257)"><g id="layer2" transform="matrix(0.48218437,0.29723169,-0.0681717,0.60163517,44.419823,104.99488)" style="display:inline"><path id="path865" d="m 58.619153,84.962748 -15.05364,-15.0535 5.30648,-5.30634 9.74716,9.70946 24.80066,-24.80065 5.30634,5.34389 m -22.58032,-30.107 -33.87048,15.0535 v 22.58032 c 0,20.88683 14.4514,40.418842 33.87048,45.160632 19.41907,-4.74179 33.870477,-24.273802 33.870477,-45.160632 v -22.58032 z" style="opacity:.820513;fill:url(#linearGradient863);fill-opacity:1;stroke-width:3.76338;filter:url(#filter7347)"/><rect id="rect7351" width="52.041" height="37.418" x="33.308" y="71.56" ry="0" transform="matrix(0.91759264,-0.39752201,0.13948017,0.99022486,0,0)" style="opacity:1;fill:#fff;fill-opacity:1;stroke:none;stroke-width:10.5332;stroke-miterlimit:3.2;stroke-dasharray:none;stroke-dashoffset:88.7603;stroke-opacity:1;paint-order:fill markers stroke"/><path style="display:inline;fill:url(#linearGradient863-2);fill-opacity:1;stroke-width:3.76338" id="path865-6" d="m 58.619153,84.962748 -15.05364,-15.0535 5.30648,-5.30634 9.74716,9.70946 24.80066,-24.80065 5.30634,5.34389 m -22.58032,-30.107 -33.87048,15.0535 v 22.58032 c 0,20.88683 14.4514,40.418832 33.87048,45.160622 19.41907,-4.74179 33.870477,-24.273792 33.870477,-45.160622 l -1e-5,-22.58032 z"/></g></g></g></svg>